<svg width="1242" height="2688" viewBox="0 0 1242 2688" xmlns="http://www.w3.org/2000/svg">
  <!-- Background -->
  <rect width="1242" height="2688" fill="#ffffff"/>
  
  <!-- Centered Logo (30% of screen height) -->
  <g transform="translate(621, 1344)">
    <!-- VIA Text -->
    <text x="0" y="-150" font-family="Georgia, serif" font-size="200" font-weight="bold" fill="#5a2a27" text-anchor="middle" letter-spacing="15">VIA</text>
    
    <!-- Italian Table Text -->
    <text x="0" y="-50" font-family="Georgia, serif" font-size="45" fill="#5a2a27" text-anchor="middle" letter-spacing="6">ITALIAN TABLE</text>
    
    <!-- Decorative Line Above -->
    <line x1="-250" y1="-280" x2="250" y2="-280" stroke="#5a2a27" stroke-width="2"/>
    
    <!-- Decorative Line Below -->
    <line x1="-250" y1="80" x2="250" y2="80" stroke="#5a2a27" stroke-width="2"/>
    
    <!-- Wine Glass -->
    <path d="M -120 100 L -100 200 L -105 200 L -105 250 L -60 250 L -60 200 L -65 200 L -45 100 Z M -115 100 L -120 130 L -40 130 L -45 100 Z" fill="#5a2a27"/>
    
    <!-- Fork -->
    <path d="M 50 100 L 50 200 L 60 200 L 60 250 L 70 250 L 70 200 L 80 200 L 80 100 Z M 50 100 L 50 160 L 60 160 L 60 100 Z M 70 100 L 70 160 L 80 160 L 80 100 Z" fill="#5a2a27"/>
  </g>
</svg>
